<svg xmlns="http://www.w3.org/2000/svg" width="70.628" height="85.781" viewBox="0 0 70.628 85.781">
  <g id="Bible-icon" transform="translate(-179.171 -154.219)">
    <g id="noun-bible-3583145" transform="translate(98.404 133.484)">
      <path id="Path_1727" data-name="Path 1727" d="M110.268,173.007H83.748a2.981,2.981,0,0,1-2.98-2.974V131.026a2.988,2.988,0,0,1,2.98-2.98h2.825a.706.706,0,0,1,0,1.413H83.748a1.568,1.568,0,0,0-1.568,1.568v39.007a1.561,1.561,0,0,0,1.568,1.561h26.52a.706.706,0,1,1,0,1.413Z" transform="translate(0 -72.302)" fill="#fff"/>
      <path id="Path_1728" data-name="Path 1728" d="M416.16,173.007H389.64a.706.706,0,1,1,0-1.413h26.52a1.561,1.561,0,0,0,1.568-1.561V131.026a1.568,1.568,0,0,0-1.568-1.568h-2.825a.706.706,0,0,1,0-1.413h2.825a2.988,2.988,0,0,1,2.98,2.98v39.007a2.981,2.981,0,0,1-2.98,2.974Z" transform="translate(-267.746 -72.302)" fill="#fff"/>
      <path id="Path_1729" data-name="Path 1729" d="M374.82,94.941a.662.662,0,0,1-.3-.07,32.956,32.956,0,0,0-28.9,0,.706.706,0,0,1-1-.636V48.667a.706.706,0,0,1,.43-.65,37,37,0,0,1,30.052,0,.707.707,0,0,1,.431.65V94.235a.719.719,0,0,1-.707.706Zm-14.761-4.824h0a35.17,35.17,0,0,1,14.056,3.022V49.132a35.605,35.605,0,0,0-28.088,0V93.14a35.01,35.01,0,0,1,14.033-3.022Z" transform="translate(-229.239)" fill="#fff"/>
      <path id="Path_1730" data-name="Path 1730" d="M120.41,94.941a.751.751,0,0,1-.382-.113.707.707,0,0,1-.325-.593V48.667a.707.707,0,0,1,.431-.65,37,37,0,0,1,30.052,0,.706.706,0,0,1,.43.65V94.235a.715.715,0,0,1-1.031.636,32.97,32.97,0,0,0-28.907,0h0a.627.627,0,0,1-.268.07Zm.706-45.809V93.14a34.117,34.117,0,0,1,28.088,0V49.132a35.605,35.605,0,0,0-28.088,0Z" transform="translate(-33.829 0)" fill="#fff"/>
      <path id="Path_1731" data-name="Path 1731" d="M306.82,467.283a6.525,6.525,0,0,1-6.519-6.519.706.706,0,0,1,1.413,0,5.106,5.106,0,1,0,10.212,0,.706.706,0,0,1,1.413,0,6.525,6.525,0,0,1-6.519,6.519Z" transform="translate(-190.739 -360.767)" fill="#fff"/>
      <path id="Path_1732" data-name="Path 1732" d="M406.223,129.193H387.86a.706.706,0,1,1,0-1.413h18.363a.706.706,0,0,1,0,1.413Z" transform="translate(-266.199 -72.072)" fill="#fff"/>
      <path id="Path_1733" data-name="Path 1733" d="M406.223,180.5H387.86a.706.706,0,1,1,0-1.413h18.363a.706.706,0,0,1,0,1.413Z" transform="translate(-266.199 -116.652)" fill="#fff"/>
      <path id="Path_1734" data-name="Path 1734" d="M406.223,231.823H387.86a.706.706,0,1,1,0-1.413h18.363a.706.706,0,0,1,0,1.413Z" transform="translate(-266.199 -161.24)" fill="#fff"/>
      <path id="Path_1735" data-name="Path 1735" d="M406.223,283.133H387.86a.706.706,0,1,1,0-1.413h18.363a.706.706,0,0,1,0,1.413Z" transform="translate(-266.199 -205.82)" fill="#fff"/>
      <path id="Path_1736" data-name="Path 1736" d="M406.223,334.453H387.86a.706.706,0,1,1,0-1.413h18.363a.706.706,0,0,1,0,1.413Z" transform="translate(-266.199 -250.409)" fill="#fff"/>
      <path id="Path_1737" data-name="Path 1737" d="M183.575,170.777h-3.369a.706.706,0,0,1-.706-.706v-13.32h-5.3a.706.706,0,0,1-.706-.707v-3.369a.706.706,0,0,1,.706-.706h5.3v-3.616a.707.707,0,0,1,.706-.707h3.369a.707.707,0,0,1,.707.707v3.616h5.3a.706.706,0,0,1,.707.706v3.369a.707.707,0,0,1-.707.707h-5.3v13.32a.707.707,0,0,1-.707.706Zm-2.663-1.413h1.957v-13.32a.706.706,0,0,1,.706-.706h5.3v-1.956h-5.3a.707.707,0,0,1-.706-.707V149.06h-1.956v3.616a.707.707,0,0,1-.707.707h-5.3v1.956h5.3a.707.707,0,0,1,.707.706Z" transform="translate(-80.56 -89.333)" fill="#fff"/>
    </g>
    <g id="noun-chat-5388704" transform="translate(-236.562 -98.272)">
      <path id="Path_1738" data-name="Path 1738" d="M102.506,72.077a.575.575,0,0,1,.575-.575h12.762a.575.575,0,1,1,0,1.15H103.081a.575.575,0,0,1-.575-.575Zm.575,3.762h12.762a.575.575,0,1,0,0-1.15H103.081a.575.575,0,1,0,0,1.15Zm13.339,2.612a.575.575,0,0,0-.577-.573H103.081a.575.575,0,1,0,0,1.15h12.762a.575.575,0,0,0,.577-.577ZM131.007,73.9V86.118a2.272,2.272,0,0,1-2.263,2.263l-11.656.039-3.328,3.458h0a.575.575,0,0,1-.989-.422l.122-3.044-2.788-.033h0a2.265,2.265,0,0,1-2.258-2.263V84.05l-.724,0-3.327,3.459a.575.575,0,0,1-.989-.422l.122-3.043-2.788-.033a2.266,2.266,0,0,1-2.258-2.263V69.535a2.267,2.267,0,0,1,2.265-2.263h18.631a2.267,2.267,0,0,1,2.265,2.263v2.1h7.7a2.267,2.267,0,0,1,2.265,2.263Zm-22.589,9,10.354-.034a1.119,1.119,0,0,0,1.119-1.113V69.535a1.115,1.115,0,0,0-1.115-1.113H100.146a1.115,1.115,0,0,0-1.115,1.113V81.751a1.115,1.115,0,0,0,1.115,1.113l3.386.039h0a.575.575,0,0,1,.568.6l-.085,2.123,2.447-2.544a.575.575,0,0,1,.412-.176Zm21.439-9a1.116,1.116,0,0,0-1.116-1.113h-7.7v8.963a2.272,2.272,0,0,1-2.263,2.263L109,84.046v2.071a1.116,1.116,0,0,0,1.115,1.113l3.386.039h0a.576.576,0,0,1,.568.6l-.086,2.12,2.447-2.543a.575.575,0,0,1,.412-.176l11.9-.039a1.119,1.119,0,0,0,1.118-1.114Z" transform="translate(336.118 185.219)" fill="#fff"/>
    </g>
  </g>
</svg>
