<?xml version="1.0" encoding="utf-8"?>
<!-- Svg Vector Icons : http://www.onlinewebfonts.com/icon -->
<!DOCTYPE svg PUBLIC "-//W3C//DTD SVG 1.1//EN" "http://www.w3.org/Graphics/SVG/1.1/DTD/svg11.dtd">
<svg version="1.1" xmlns="http://www.w3.org/2000/svg" xmlns:xlink="http://www.w3.org/1999/xlink" x="0px" y="0px" viewBox="0 0 1000 1000" enable-background="new 0 0 1000 1000" xml:space="preserve">
<metadata> Svg Vector Icons : http://www.onlinewebfonts.com/icon </metadata>
<g><path d="M990,39.2H10"/><path d="M860.6,960.8h-239c-22,0-39.8-17.3-39.8-38.5V691.6H422.5v230.8c0,21.2-17.9,38.5-39.8,38.5h-239c-22,0-39.8-17.3-39.8-38.5V423.1c0-18.1,7.3-35.1,20.5-47.9l328.2-317c26.5-25.6,72.6-25.6,99.1,0l328.2,317c13.2,12.8,20.5,29.8,20.5,47.9v499.2C900.5,943.6,882.6,960.8,860.6,960.8z M422.5,653.1h159.3c22,0,39.8,17.2,39.8,38.5v230.8h239l0-499.2c0-7.8-3.2-15.1-8.9-20.7l-328.2-317c-11.4-11-31.4-11-42.8,0l-328.2,317c-5.7,5.5-8.9,12.9-8.9,20.7v499.2h239V691.6C382.6,670.4,400.5,653.1,422.5,653.1z"/></g>
</svg>