<svg xmlns="http://www.w3.org/2000/svg" xmlns:xlink="http://www.w3.org/1999/xlink" width="84.482" height="48.834" viewBox="0 0 84.482 48.834">
  <defs>
    <linearGradient id="linear-gradient" x1="0.064" y1="0.878" x2="0.81" y2="0.415" gradientUnits="objectBoundingBox">
      <stop offset="0" stop-color="#00c1e5"/>
      <stop offset="0.254" stop-color="#00c5e1"/>
      <stop offset="0.508" stop-color="#00d1d5"/>
      <stop offset="0.762" stop-color="#00e5c1"/>
      <stop offset="1" stop-color="#00ffa8"/>
    </linearGradient>
  </defs>
  <g id="i-connect-icon" transform="translate(-261.622 -298.783)">
    <path id="Path_1" data-name="Path 1" d="M496.146,323.953a13.819,13.819,0,0,0-9.8-4.06c-.1,0-.195,0-.3,0a22.916,22.916,0,0,0-42.072-10.662,20.028,20.028,0,1,0-8.219,38.292v0l16.539.024a1.243,1.243,0,1,0,0-2.486l-16.539-.023v0a17.537,17.537,0,1,1,8.115-33.084,1.241,1.241,0,0,0,1.65-.479l0,0a20.428,20.428,0,0,1,38.1,9.782,1.244,1.244,0,0,0,1.268,1.219c.039,0,.078,0,.116-.008v0c.234-.027.459-.047.672-.06.188-.011.408-.017.663-.017a11.366,11.366,0,1,1,0,22.732c-.246,0-.452,0-.615-.013-.042,0-.083,0-.125,0l-26.4-.038v-3.331a13.334,13.334,0,0,0,12.049-13.233v-4.824a1.248,1.248,0,0,0-1.248-1.248h-2.917v-4.792a9.147,9.147,0,0,0-9.124-9.124h0a9.145,9.145,0,0,0-9.124,9.124v4.792h-2.921a1.248,1.248,0,0,0-1.248,1.248v4.824a13.332,13.332,0,0,0,12.048,13.233v4.572a1.243,1.243,0,0,0,1.243,1.244l27.635.04h0q.429.022.741.023a13.861,13.861,0,0,0,9.8-23.663Zm-44.807-.729h6.413a1.248,1.248,0,0,0,0-2.5h-6.413v-3.048h6.413a1.248,1.248,0,0,0,0-2.5h-5.937a6.674,6.674,0,0,1,1.473-2.223,6.607,6.607,0,0,1,4.68-1.948h0a6.666,6.666,0,0,1,6.153,4.171h-2.443a1.248,1.248,0,0,0,0,2.5H464.6v3.048h-2.919a1.248,1.248,0,0,0,0,2.5H464.6v3.053h-2.919a1.243,1.243,0,1,0,0,2.486h2.864a6.657,6.657,0,0,1-6.574,5.78h0a6.657,6.657,0,0,1-6.573-5.78h6.358a1.243,1.243,0,0,0,0-2.486h-6.413Zm6.627,16.076a10.829,10.829,0,0,1-10.8-10.795v-3.576h1.673v2.983a9.147,9.147,0,0,0,9.124,9.125h0a9.148,9.148,0,0,0,9.124-9.125v-2.983h1.669v3.576A10.829,10.829,0,0,1,457.965,339.3Z" transform="translate(-154.102)" fill="url(#linear-gradient)"/>
  </g>
</svg>
