<svg xmlns="http://www.w3.org/2000/svg" width="14.143" height="17.345" viewBox="0 0 14.143 17.345">
  <g id="icon-apple" transform="translate(-53.262 -483.661)">
    <path id="icons-apple" d="M17.431,6.272A3.918,3.918,0,0,0,15.516,9.6a3.919,3.919,0,0,0,2.357,3.482,9.353,9.353,0,0,1-1.222,2.472c-.7,1.069-1.481,2.146-2.665,2.146-1.126,0-1.53-.712-2.829-.712-1.395,0-1.79.712-2.857.712-1.183,0-2.02-1.135-2.761-2.194A10.811,10.811,0,0,1,3.731,9.861a5.952,5.952,0,0,1,.731-3.117A4.349,4.349,0,0,1,8.06,4.55c1.135-.038,2.145.779,2.838.779.664,0,1.9-.779,3.309-.779A3.858,3.858,0,0,1,17.431,6.272ZM10.8,4.329a3.426,3.426,0,0,1,.875-2.665A3.693,3.693,0,0,1,14.294.356a3.767,3.767,0,0,1-.962,2.723A2.956,2.956,0,0,1,10.8,4.329Z" transform="translate(49.532 483.305)" fill="#fff"/>
  </g>
</svg>
