<svg xmlns="http://www.w3.org/2000/svg" width="20" height="20" viewBox="0 0 20 20">
  <g id="icon-google" transform="translate(-4 -4)">
    <path id="Path_37" data-name="Path 37" d="M23.806,12.042H23V12H14v4h5.652A6,6,0,1,1,17.981,9.52l2.829-2.829A9.99,9.99,0,1,0,24,14,10.068,10.068,0,0,0,23.806,12.042Z" fill="#fbc02d"/>
    <path id="Path_38" data-name="Path 38" d="M6.306,9.346l3.286,2.41A5.988,5.988,0,0,1,19.134,9.52l2.828-2.829A9.98,9.98,0,0,0,6.306,9.346Z" transform="translate(-1.153)" fill="#e53935"/>
    <path id="Path_39" data-name="Path 39" d="M15.1,36.027a9.953,9.953,0,0,0,6.7-2.6l-3.1-2.619a5.984,5.984,0,0,1-9.251-2.758L6.2,30.567A9.992,9.992,0,0,0,15.1,36.027Z" transform="translate(-1.098 -12.027)" fill="#4caf50"/>
    <path id="Path_40" data-name="Path 40" d="M33.806,20.042,33.8,20H24v4h5.652a6.02,6.02,0,0,1-2.043,2.786h0L30.7,29.4A9.673,9.673,0,0,0,34,22,10.068,10.068,0,0,0,33.806,20.042Z" transform="translate(-10 -8)" fill="#1565c0"/>
  </g>
</svg>
