<svg xmlns="http://www.w3.org/2000/svg" width="45" height="45" viewBox="0 0 45 45">
  <g id="icon-premium" transform="translate(-172 -745)">
    <rect id="Rectangle_160" data-name="Rectangle 160" width="45" height="45" rx="22.5" transform="translate(172 745)" fill="rgba(0,255,168,0)"/>
    <g id="noun-crown-1209655_1_" data-name="noun-crown-1209655 (1)" transform="translate(106.982 684.951)">
      <path id="Path_35793" data-name="Path 35793" d="M199.975,367.657a.288.288,0,0,0,.3-.3v-3.047a.288.288,0,0,0-.3-.3H182.3a.288.288,0,0,0-.3.3v3.047a.288.288,0,0,0,.3.3Zm-17.367-3.047H199.67v2.438H182.608Z" transform="translate(-103.621 -275.358)" fill="#00e1c5" stroke="#00e1c5" stroke-width="0.5"/>
      <path id="Path_35794" data-name="Path 35794" d="M133.424,74.627a1.98,1.98,0,0,0,0,3.961h.03c-.457.883-1.828,3.169-3.961,3.352-2.041.183-4.3-1.584-6.673-5.241a1.984,1.984,0,1,0-2.5-1.92,1.993,1.993,0,0,0,1.462,1.92c-2.377,3.656-4.631,5.423-6.673,5.241-2.133-.183-3.5-2.468-3.961-3.352h.03a1.98,1.98,0,1,0-1.98-1.98,2.012,2.012,0,0,0,1.219,1.828v.03l2.468,9.049a.3.3,0,0,0,.3.213h18.19a.331.331,0,0,0,.3-.213l2.5-9.049v-.03a1.981,1.981,0,0,0-.762-3.809Zm-23.613,1.981a1.371,1.371,0,1,1,1.371,1.371A1.365,1.365,0,0,1,109.811,76.608Zm11.121-1.828a1.371,1.371,0,1,1,1.371,1.371A1.365,1.365,0,0,1,120.932,74.779Zm10.237,12.34H113.437l-1.828-6.7a5.057,5.057,0,0,0,3.473,2.133c2.285.183,4.723-1.676,7.251-5.515,2.468,3.839,4.905,5.7,7.221,5.515a5.194,5.194,0,0,0,3.473-2.133Zm2.255-9.141a1.371,1.371,0,1,1,1.371-1.371A1.365,1.365,0,0,1,133.424,77.979Z" transform="translate(-34.786)" fill="#00e1c5" stroke="#00e1c5" stroke-width="0.5"/>
    </g>
  </g>
</svg>
