<svg id="icons-facebook" xmlns="http://www.w3.org/2000/svg" width="19.466" height="19.466" viewBox="0 0 19.466 19.466">
  <path id="Path_35" data-name="Path 35" d="M14.733,5a9.733,9.733,0,1,0,9.733,9.733A9.733,9.733,0,0,0,14.733,5Z" transform="translate(-5 -5)" fill="#039be5"/>
  <path id="Path_36" data-name="Path 36" d="M21.69,21.2h2.544l.4-2.584H21.689V17.2c0-1.073.351-2.025,1.355-2.025h1.614V12.923a13.706,13.706,0,0,0-2.016-.122c-2.366,0-3.753,1.249-3.753,4.1v1.719H16.457V21.2h2.432v7.1a8.913,8.913,0,0,0,2.8.021Z" transform="translate(-10.629 -8.958)" fill="#fff"/>
</svg>
