<svg xmlns="http://www.w3.org/2000/svg" width="25.061" height="20" viewBox="0 0 25.061 20">
  <path id="icon-connect" d="M142.955,114.264a4.109,4.109,0,0,1-.025,1.256H139.6a6.9,6.9,0,0,1-6.658-5.1c.318-.037.967-.023,1.294-.025h0a5.67,5.67,0,0,0,5.364,3.869Zm2.513,1.219h0A6.913,6.913,0,0,1,138.6,121.7H133.42c-8.72-.239-9.3-12.689-.691-13.781A6.914,6.914,0,0,1,139.6,101.7h5.176c8.738.242,9.28,12.714.691,13.781Zm-6.872-6.344h-4.623c-7.8-.368-8.407,10.962-.553,11.307H138.6a5.654,5.654,0,0,0,0-11.307Zm6.181-6.181H139.6a5.663,5.663,0,0,0-5.6,4.924h4.6a6.911,6.911,0,0,1,6.885,6.332c6.86-.884,6.329-11.2-.7-11.256Z" transform="translate(-126.567 -101.701)" fill="#00ffa8"/>
</svg>
