<?xml version="1.0" encoding="utf-8"?>
<!-- Svg Vector Icons : http://www.onlinewebfonts.com/icon -->
<!DOCTYPE svg PUBLIC "-//W3C//DTD SVG 1.1//EN" "http://www.w3.org/Graphics/SVG/1.1/DTD/svg11.dtd">
<svg version="1.1" xmlns="http://www.w3.org/2000/svg" xmlns:xlink="http://www.w3.org/1999/xlink" x="0px" y="0px" viewBox="0 0 1000 1000" enable-background="new 0 0 1000 1000" xml:space="preserve">
<metadata> Svg Vector Icons : http://www.onlinewebfonts.com/icon </metadata>
<g><path d="M83.6,747.1c-22-12-32-25.6-32-42v-22.4c0-39.7,80.8-95.9,185.9-134c30.3-11.4,51.4-45,33-93.2l-4.6-7.2c-44.1-45-74-115.9-74-181.3c0-75.8,36.6-127.3,95.5-145.4c11-3.4,17.1-15.1,13.7-26.1c-3.4-10.9-15-17.1-26-13.7c-76.6,23.6-124.9,91.4-124.9,185.2c0,74.5,32.6,153.3,82,206c7.4,21.9,0.8,32.9-9.2,36.6C101.4,553.7,10,617.4,10,682.7v22.4c0,33.4,19.4,59.8,53.6,78.5c10.1,5.5,22.7,1.8,28.3-8.2C97.4,765.3,93.7,752.6,83.6,747.1z"/><path d="M531.3,854.2c-194.1,0-313.2-30.6-313.2-89v-24.6c0-44.9,89.2-107,205.6-149.1c32.3-12.1,54.8-47.9,35-99.8l-4.6-7.2c-48.8-49.8-81.8-128.2-81.8-200.6c0-105.4,65.3-169.2,158-169.2c92.9,0,158.5,63.9,158.5,169.2c0,71.8-33,149.8-81.5,200.2l-4.8,8c-18.3,55.7,0,89.8,29.6,99.6c24.8,8.2,49.7,17.9,73.2,28.7l17.4-37.8c-24.8-11.4-51.2-21.7-77.5-30.4c-7.8-2.6-13.2-13.2-3.9-43.6c53.7-57.9,89.3-143.8,89.3-224.6c0-128.6-84.4-210.8-200-210.8c-115.5-0.1-199.7,82.1-199.7,210.8c0,81.4,35.8,167.7,89.8,225.3c8.7,25.6,0.8,38.7-11.2,43.2c-133,48.1-232.8,117.6-232.8,188.2v24.6c0,96.4,133.6,130.6,354.8,130.6c39.8,0,77.1-1.2,111.5-3.8l-3.2-41.5C606.4,853,570.1,854.2,531.3,854.2z"/><path d="M839.9,727.8V568.5H791v159.3H631.7v48.9H791v150.1h48.9V776.7H990v-48.9H839.9z"/></g>
</svg>