<svg xmlns="http://www.w3.org/2000/svg" width="45" height="45" viewBox="0 0 45 45">
  <g id="icon-group" transform="translate(-172 -745)">
    <rect id="Rectangle_160" data-name="Rectangle 160" width="45" height="45" rx="22.5" transform="translate(172 745)" fill="rgba(0,197,224,0)"/>
    <g id="noun-group-130271" transform="translate(68.855 653.429)">
      <path id="Path_35792" data-name="Path 35792" d="M136.283,112.857a6.044,6.044,0,0,0-5.1-9.286h0a6.034,6.034,0,0,0-4.4,1.9,6.012,6.012,0,0,0-2.19-.029,6.046,6.046,0,0,0-9.481,7.414,9.077,9.077,0,0,0-3.605,10.01.568.568,0,0,0,.545.41h4.561a9.014,9.014,0,0,0,.282,1.376.568.568,0,0,0,.546.411h16.33a.567.567,0,0,0,.546-.41,9.053,9.053,0,0,0,.282-1.376h4.753a.568.568,0,0,0,.546-.411,9.075,9.075,0,0,0-3.607-10.009Zm-5.105-8.151a4.913,4.913,0,0,1,0,9.827c-.132,0-.263-.007-.394-.017a6.046,6.046,0,0,0-2.77-8.653,4.9,4.9,0,0,1,3.164-1.156Zm-.667,6.7a4.913,4.913,0,1,1-4.913-4.913A4.919,4.919,0,0,1,130.511,111.4Zm-10.3-6.7a4.909,4.909,0,0,1,3.1,1.1,6.043,6.043,0,0,0-2.891,8.718c-.069,0-.139.007-.208.007a4.913,4.913,0,0,1,0-9.827Zm-7.725,17.437a7.94,7.94,0,0,1,3.32-8.386,6.038,6.038,0,0,0,3.514,1.845,9.109,9.109,0,0,0-2.785,6.534v.007h-4.048Zm20.84,1.785H117.872a7.946,7.946,0,0,1,3.236-8.329l.121-.017a6.035,6.035,0,0,0,8.767-.031l.032.007a7.969,7.969,0,0,1,3.5,6.576c0,.219-.008.438-.027.652a7.894,7.894,0,0,1-.177,1.141Zm5.58-1.786h-4.241v-.007a9.1,9.1,0,0,0-2.763-6.511,6.041,6.041,0,0,0,3.685-1.867,7.938,7.938,0,0,1,3.319,8.385Z" transform="translate(0 0)" fill="#00e1c5" stroke="#00e1c5" stroke-width="0.2"/>
    </g>
  </g>
</svg>
