<svg xmlns="http://www.w3.org/2000/svg" xmlns:xlink="http://www.w3.org/1999/xlink" width="230.274" height="118.556" viewBox="0 0 230.274 118.556">
  <defs>
    <linearGradient id="linear-gradient" x1="0.064" y1="0.878" x2="0.81" y2="0.415" gradientUnits="objectBoundingBox">
      <stop offset="0" stop-color="#00c1e5"/>
      <stop offset="0.254" stop-color="#00c5e1"/>
      <stop offset="0.508" stop-color="#00d1d5"/>
      <stop offset="0.762" stop-color="#00e5c1"/>
      <stop offset="1" stop-color="#00ffa8"/>
    </linearGradient>
    <linearGradient id="linear-gradient-2" x1="0.5" y1="0.988" x2="0.5" y2="-0.142" xlink:href="#linear-gradient"/>
    <linearGradient id="linear-gradient-3" x1="0.5" y1="3.605" x2="0.5" y2="-3.718" xlink:href="#linear-gradient"/>
  </defs>
  <g id="Logo" transform="translate(-225.863 -298.783)">
    <path id="Path_1" data-name="Path 1" d="M534.436,335.937a20.4,20.4,0,0,0-14.468-5.994c-.14,0-.287,0-.443.006a33.826,33.826,0,0,0-62.1-15.738,29.564,29.564,0,1,0-12.132,56.523v-.007l24.414.035a1.835,1.835,0,1,0,0-3.67l-24.414-.034v-.007a25.887,25.887,0,1,1,11.979-48.836,1.832,1.832,0,0,0,2.435-.707l0,0a30.154,30.154,0,0,1,56.244,14.44,1.836,1.836,0,0,0,1.871,1.8c.057,0,.115-.006.172-.011v0c.345-.04.677-.07.992-.088.277-.016.6-.026.979-.026a16.777,16.777,0,1,1,0,33.555c-.364,0-.668-.006-.907-.019-.062,0-.123,0-.184,0l-38.963-.056,0-4.917A19.682,19.682,0,0,0,497.7,342.658v-7.12a1.842,1.842,0,0,0-1.842-1.842h-4.306v-7.074a13.5,13.5,0,0,0-13.468-13.468h0a13.5,13.5,0,0,0-13.468,13.468V333.7H460.3a1.842,1.842,0,0,0-1.842,1.842v7.12a19.68,19.68,0,0,0,17.785,19.533v6.749a1.835,1.835,0,0,0,1.835,1.836l40.793.058h0q.633.033,1.094.033a20.461,20.461,0,0,0,14.468-34.93Zm-66.141-1.076h9.466a1.842,1.842,0,0,0,0-3.684h-9.466v-4.5h9.466a1.842,1.842,0,0,0,0-3.684H469a9.841,9.841,0,0,1,9.082-6.157h0a9.84,9.84,0,0,1,9.082,6.157h-3.607a1.842,1.842,0,0,0,0,3.684h4.308v4.5h-4.308a1.842,1.842,0,1,0,0,3.684h4.308v4.506h-4.308a1.835,1.835,0,1,0,0,3.669h4.228a9.826,9.826,0,0,1-9.7,8.531h0a9.826,9.826,0,0,1-9.7-8.531h9.384a1.835,1.835,0,0,0,0-3.669h-9.466Zm9.782,23.731a15.985,15.985,0,0,1-15.935-15.935V337.38h2.469v4.4a13.5,13.5,0,0,0,13.468,13.469h0a13.5,13.5,0,0,0,13.468-13.469v-4.4h2.463v5.278a15.985,15.985,0,0,1-15.935,15.935Z" transform="translate(-137.076)" fill="url(#linear-gradient)"/>
    <g id="Group_1" data-name="Group 1" transform="translate(225.863 382.561)">
      <path id="Path_2" data-name="Path 2" d="M230.205,600.124a.645.645,0,0,1,.729.729V622.6a.645.645,0,0,1-.729.729h-3.58q-.763,0-.762-.729V600.853q0-.729.762-.729Z" transform="translate(-225.863 -600.124)" fill="url(#linear-gradient-2)"/>
      <path id="Path_3" data-name="Path 3" d="M265.29,636.132a.527.527,0,0,1,.6.6v2.386a.527.527,0,0,1-.6.6h-9.977a.527.527,0,0,1-.6-.6v-2.386a.527.527,0,0,1,.6-.6Z" transform="translate(-246.694 -626.121)" fill="url(#linear-gradient-3)"/>
      <path id="Path_4" data-name="Path 4" d="M328.783,600.124a.645.645,0,0,1,.729.729V604.1q0,.763-.729.762h-14.75a8.865,8.865,0,0,0-2.138.215,2.773,2.773,0,0,0-1.342.729,2.968,2.968,0,0,0-.713,1.376,9.221,9.221,0,0,0-.215,2.188v4.707a9.43,9.43,0,0,0,.215,2.2,2.971,2.971,0,0,0,.713,1.392,2.766,2.766,0,0,0,1.342.729,8.837,8.837,0,0,0,2.138.215h14.75a.645.645,0,0,1,.729.729V622.6a.645.645,0,0,1-.729.729H313.834a16.953,16.953,0,0,1-4.276-.464,6.529,6.529,0,0,1-2.867-1.508,6.1,6.1,0,0,1-1.624-2.718,13.959,13.959,0,0,1-.514-4.061v-5.7a13.789,13.789,0,0,1,.514-4.044,6.1,6.1,0,0,1,1.624-2.7,6.669,6.669,0,0,1,2.867-1.525,16.427,16.427,0,0,1,4.276-.481Z" transform="translate(-282.675 -600.124)" fill="url(#linear-gradient-2)"/>
      <path id="Path_5" data-name="Path 5" d="M425.658,600.124a16.623,16.623,0,0,1,4.293.481,6.673,6.673,0,0,1,2.884,1.525,5.98,5.98,0,0,1,1.608,2.7,14.223,14.223,0,0,1,.5,4.044v5.7a14.4,14.4,0,0,1-.5,4.061,5.975,5.975,0,0,1-1.608,2.718,6.534,6.534,0,0,1-2.884,1.508,17.156,17.156,0,0,1-4.293.464H415.415a16.953,16.953,0,0,1-4.276-.464,6.528,6.528,0,0,1-2.867-1.508,6.091,6.091,0,0,1-1.624-2.718,13.949,13.949,0,0,1-.514-4.061v-5.7a13.78,13.78,0,0,1,.514-4.044,6.1,6.1,0,0,1,1.624-2.7,6.668,6.668,0,0,1,2.867-1.525,16.427,16.427,0,0,1,4.276-.481Zm-14.452,14.088a9.255,9.255,0,0,0,.216,2.171,2.973,2.973,0,0,0,.713,1.392,2.767,2.767,0,0,0,1.343.729,8.833,8.833,0,0,0,2.138.215h9.845a8.833,8.833,0,0,0,2.138-.215,2.766,2.766,0,0,0,1.343-.729,2.975,2.975,0,0,0,.713-1.392,9.27,9.27,0,0,0,.216-2.171V609.24a9.279,9.279,0,0,0-.216-2.171,2.98,2.98,0,0,0-.713-1.392,2.774,2.774,0,0,0-1.343-.729,8.862,8.862,0,0,0-2.138-.215h-9.845a8.862,8.862,0,0,0-2.138.215,2.774,2.774,0,0,0-1.343.729,2.978,2.978,0,0,0-.713,1.392,9.264,9.264,0,0,0-.216,2.171Z" transform="translate(-356.016 -600.124)" fill="url(#linear-gradient-2)"/>
      <path id="Path_6" data-name="Path 6" d="M530.426,600.124a11.054,11.054,0,0,1,1.326.066,2.628,2.628,0,0,1,.928.282,3.146,3.146,0,0,1,.762.6,10.729,10.729,0,0,1,.829,1.011L546.6,618.256a.458.458,0,0,0,.431.232h.3q.265,0,.265-.332v-17.3a.645.645,0,0,1,.729-.729h3.481a.645.645,0,0,1,.729.729V619.88a3.845,3.845,0,0,1-.729,2.735,3.117,3.117,0,0,1-2.254.713H546.7a10.176,10.176,0,0,1-1.276-.066,2.833,2.833,0,0,1-.912-.265,3.022,3.022,0,0,1-.779-.58,9.824,9.824,0,0,1-.878-1.044L530.492,605.2a.57.57,0,0,0-.431-.232h-.3c-.177,0-.265.111-.265.331v17.3a.645.645,0,0,1-.729.729h-3.481q-.763,0-.762-.729V603.571a3.846,3.846,0,0,1,.729-2.735,3.117,3.117,0,0,1,2.254-.713Z" transform="translate(-441.493 -600.124)" fill="url(#linear-gradient-2)"/>
      <path id="Path_7" data-name="Path 7" d="M647.031,600.124a11.054,11.054,0,0,1,1.326.066,2.628,2.628,0,0,1,.928.282,3.146,3.146,0,0,1,.762.6,10.729,10.729,0,0,1,.829,1.011l12.331,16.176a.458.458,0,0,0,.431.232h.3q.265,0,.265-.332v-17.3a.645.645,0,0,1,.729-.729h3.48a.645.645,0,0,1,.729.729V619.88a3.846,3.846,0,0,1-.729,2.735,3.117,3.117,0,0,1-2.254.713h-2.851a10.178,10.178,0,0,1-1.276-.066,2.829,2.829,0,0,1-.911-.265,3.023,3.023,0,0,1-.779-.58,9.824,9.824,0,0,1-.878-1.044L647.1,605.2a.57.57,0,0,0-.431-.232h-.3c-.177,0-.265.111-.265.331v17.3a.645.645,0,0,1-.729.729h-3.481q-.763,0-.762-.729V603.571a3.846,3.846,0,0,1,.729-2.735,3.117,3.117,0,0,1,2.254-.713Z" transform="translate(-525.68 -600.124)" fill="url(#linear-gradient-2)"/>
      <path id="Path_8" data-name="Path 8" d="M780.649,600.124q.762,0,.762.729V604q0,.73-.762.729H766.164a8.862,8.862,0,0,0-2.138.215,2.884,2.884,0,0,0-1.359.729,2.789,2.789,0,0,0-.713,1.392,10.03,10.03,0,0,0-.2,2.171v.332h18.728a.645.645,0,0,1,.729.729v2.619a.645.645,0,0,1-.729.729H761.755v.564a10.019,10.019,0,0,0,.2,2.171,2.784,2.784,0,0,0,.713,1.392,2.876,2.876,0,0,0,1.359.729,8.833,8.833,0,0,0,2.138.215h14.486q.762,0,.762.729V622.6q0,.729-.762.729H766.064a16.953,16.953,0,0,1-4.276-.464,6.528,6.528,0,0,1-2.867-1.508,6.091,6.091,0,0,1-1.624-2.718,13.949,13.949,0,0,1-.514-4.061v-5.7a13.78,13.78,0,0,1,.514-4.044,6.1,6.1,0,0,1,1.624-2.7,6.668,6.668,0,0,1,2.867-1.525,16.427,16.427,0,0,1,4.276-.481Z" transform="translate(-609.178 -600.124)" fill="url(#linear-gradient-2)"/>
      <path id="Path_9" data-name="Path 9" d="M882.357,600.124a.645.645,0,0,1,.729.729V604.1q0,.763-.729.762h-14.75a8.864,8.864,0,0,0-2.138.215,2.773,2.773,0,0,0-1.342.729,2.968,2.968,0,0,0-.713,1.376,9.235,9.235,0,0,0-.216,2.188v4.707a9.444,9.444,0,0,0,.216,2.2,2.971,2.971,0,0,0,.713,1.392,2.766,2.766,0,0,0,1.342.729,8.837,8.837,0,0,0,2.138.215h14.75a.645.645,0,0,1,.729.729V622.6a.645.645,0,0,1-.729.729H867.408a16.954,16.954,0,0,1-4.276-.464,6.529,6.529,0,0,1-2.867-1.508,6.1,6.1,0,0,1-1.624-2.718,13.958,13.958,0,0,1-.514-4.061v-5.7a13.788,13.788,0,0,1,.514-4.044,6.1,6.1,0,0,1,1.624-2.7,6.669,6.669,0,0,1,2.867-1.525,16.427,16.427,0,0,1,4.276-.481Z" transform="translate(-682.346 -600.124)" fill="url(#linear-gradient-2)"/>
      <path id="Path_10" data-name="Path 10" d="M982.186,600.124q.762,0,.762.729V604.1a.674.674,0,0,1-.762.762H971.777V622.6a.645.645,0,0,1-.729.729h-3.613a.644.644,0,0,1-.729-.729V604.864H956.3a.673.673,0,0,1-.762-.762v-3.249q0-.729.762-.729Z" transform="translate(-752.674 -600.124)" fill="url(#linear-gradient-2)"/>
    </g>
    <g id="Group_3" data-name="Group 3" transform="translate(239.47 411.694)">
      <g id="Group_2" data-name="Group 2" transform="translate(0 0)">
        <path id="Path_11" data-name="Path 11" d="M280.7,704.914a.157.157,0,0,1,.177.177v.79q0,.186-.177.185h-3.588a2.158,2.158,0,0,0-.52.053.673.673,0,0,0-.327.177.723.723,0,0,0-.173.335,2.243,2.243,0,0,0-.052.532v1.145a2.3,2.3,0,0,0,.052.537.723.723,0,0,0,.173.338.671.671,0,0,0,.327.178,2.148,2.148,0,0,0,.52.052H280.7a.157.157,0,0,1,.177.177v.79a.157.157,0,0,1-.177.177h-3.637a4.128,4.128,0,0,1-1.04-.113,1.588,1.588,0,0,1-.7-.367,1.479,1.479,0,0,1-.4-.661,3.4,3.4,0,0,1-.125-.988v-1.387a3.352,3.352,0,0,1,.125-.984,1.481,1.481,0,0,1,.4-.657,1.621,1.621,0,0,1,.7-.371,4,4,0,0,1,1.04-.117Z" transform="translate(-274.806 -704.914)" fill="#fff"/>
        <path id="Path_12" data-name="Path 12" d="M308.328,704.914a4.045,4.045,0,0,1,1.044.117,1.627,1.627,0,0,1,.7.371,1.456,1.456,0,0,1,.391.657,3.451,3.451,0,0,1,.121.984v1.387a3.5,3.5,0,0,1-.121.988,1.454,1.454,0,0,1-.391.661,1.594,1.594,0,0,1-.7.367,4.174,4.174,0,0,1-1.044.113h-2.492a4.124,4.124,0,0,1-1.04-.113,1.59,1.59,0,0,1-.7-.367,1.482,1.482,0,0,1-.4-.661,3.4,3.4,0,0,1-.125-.988v-1.387a3.351,3.351,0,0,1,.125-.984,1.484,1.484,0,0,1,.4-.657,1.624,1.624,0,0,1,.7-.371,4,4,0,0,1,1.04-.117Zm-3.516,3.427a2.234,2.234,0,0,0,.053.528.72.72,0,0,0,.173.339.672.672,0,0,0,.327.177,2.135,2.135,0,0,0,.52.053h2.395a2.135,2.135,0,0,0,.52-.053.671.671,0,0,0,.326-.177.72.72,0,0,0,.173-.339,2.265,2.265,0,0,0,.053-.528v-1.209a2.27,2.27,0,0,0-.053-.528.723.723,0,0,0-.173-.339.674.674,0,0,0-.326-.177,2.164,2.164,0,0,0-.52-.053h-2.395a2.164,2.164,0,0,0-.52.053.675.675,0,0,0-.327.177.723.723,0,0,0-.173.339,2.239,2.239,0,0,0-.053.528Z" transform="translate(-295.579 -704.914)" fill="#fff"/>
        <path id="Path_13" data-name="Path 13" d="M337.876,704.914a2.724,2.724,0,0,1,.323.016.646.646,0,0,1,.226.069.762.762,0,0,1,.185.145,2.582,2.582,0,0,1,.2.246l3,3.935a.111.111,0,0,0,.105.056h.072c.043,0,.065-.027.065-.081v-4.209a.157.157,0,0,1,.177-.177h.847a.157.157,0,0,1,.178.177v4.629a.935.935,0,0,1-.178.665.757.757,0,0,1-.548.173h-.694a2.475,2.475,0,0,1-.31-.016.686.686,0,0,1-.222-.065.745.745,0,0,1-.19-.141,2.45,2.45,0,0,1-.214-.254l-3.008-3.935a.139.139,0,0,0-.1-.057h-.073c-.043,0-.064.027-.064.081v4.209a.157.157,0,0,1-.177.177h-.847c-.124,0-.185-.059-.185-.177v-4.629a.935.935,0,0,1,.177-.665.758.758,0,0,1,.548-.173Z" transform="translate(-319.305 -704.914)" fill="#fff"/>
        <path id="Path_14" data-name="Path 14" d="M370.3,704.914a2.723,2.723,0,0,1,.322.016.647.647,0,0,1,.226.069.763.763,0,0,1,.185.145,2.587,2.587,0,0,1,.2.246l3,3.935a.111.111,0,0,0,.105.056h.072c.043,0,.065-.027.065-.081v-4.209a.157.157,0,0,1,.177-.177h.847a.157.157,0,0,1,.177.177v4.629a.935.935,0,0,1-.177.665.757.757,0,0,1-.548.173h-.694a2.475,2.475,0,0,1-.31-.016.685.685,0,0,1-.222-.065.745.745,0,0,1-.19-.141,2.455,2.455,0,0,1-.214-.254l-3.008-3.935a.139.139,0,0,0-.1-.057h-.073c-.043,0-.065.027-.065.081v4.209a.157.157,0,0,1-.177.177h-.847q-.186,0-.185-.177v-4.629a.935.935,0,0,1,.178-.665.758.758,0,0,1,.548-.173Z" transform="translate(-342.716 -704.914)" fill="#fff"/>
        <path id="Path_15" data-name="Path 15" d="M406.868,704.914q.186,0,.186.177v.766q0,.177-.186.177h-3.524a2.168,2.168,0,0,0-.52.053.7.7,0,0,0-.33.177.676.676,0,0,0-.173.339,2.443,2.443,0,0,0-.048.528v.081h4.556a.157.157,0,0,1,.177.177v.637a.157.157,0,0,1-.177.178h-4.556v.137a2.437,2.437,0,0,0,.048.528.673.673,0,0,0,.173.339.7.7,0,0,0,.33.177,2.139,2.139,0,0,0,.52.053h3.524q.186,0,.186.177v.766q0,.177-.186.177H403.32a4.124,4.124,0,0,1-1.04-.113,1.591,1.591,0,0,1-.7-.367,1.48,1.48,0,0,1-.4-.661,3.4,3.4,0,0,1-.125-.988v-1.387a3.352,3.352,0,0,1,.125-.984,1.482,1.482,0,0,1,.4-.657,1.624,1.624,0,0,1,.7-.371,4,4,0,0,1,1.04-.117Z" transform="translate(-365.961 -704.914)" fill="#fff"/>
        <path id="Path_16" data-name="Path 16" d="M435.671,704.914a.157.157,0,0,1,.177.177v.79q0,.186-.177.185h-3.588a2.159,2.159,0,0,0-.52.053.673.673,0,0,0-.327.177.72.72,0,0,0-.173.335,2.227,2.227,0,0,0-.053.532v1.145a2.282,2.282,0,0,0,.053.537.72.72,0,0,0,.173.338.671.671,0,0,0,.327.178,2.149,2.149,0,0,0,.52.052h3.588a.157.157,0,0,1,.177.177v.79a.157.157,0,0,1-.177.177h-3.637a4.124,4.124,0,0,1-1.04-.113,1.588,1.588,0,0,1-.7-.367,1.48,1.48,0,0,1-.4-.661,3.4,3.4,0,0,1-.125-.988v-1.387a3.352,3.352,0,0,1,.125-.984,1.482,1.482,0,0,1,.4-.657,1.621,1.621,0,0,1,.7-.371,4,4,0,0,1,1.04-.117Z" transform="translate(-386.692 -704.914)" fill="#fff"/>
        <path id="Path_17" data-name="Path 17" d="M464.017,704.914q.186,0,.186.177v.79a.164.164,0,0,1-.186.185h-2.532v4.314a.157.157,0,0,1-.177.177h-.879a.157.157,0,0,1-.177-.177v-4.314h-2.532a.164.164,0,0,1-.185-.185v-.79q0-.177.185-.177Z" transform="translate(-406.733 -704.914)" fill="#fff"/>
        <path id="Path_18" data-name="Path 18" d="M501.766,704.914c.053,0,.091.035.113.1l1.306,4.338a.059.059,0,0,0,.065.056h.04c.032,0,.054-.019.064-.056l1.306-3.975a.679.679,0,0,1,.234-.371.642.642,0,0,1,.363-.1h.8a.675.675,0,0,1,.407.1.741.741,0,0,1,.23.363l1.339,3.975a.065.065,0,0,0,.065.056h.048c.032,0,.054-.019.064-.056l1.274-4.338a.125.125,0,0,1,.053-.085.155.155,0,0,1,.076-.02H510.7a.069.069,0,0,1,.076.056.243.243,0,0,1-.012.129l-1.548,4.846a1.132,1.132,0,0,1-.25.488.529.529,0,0,1-.371.125h-.944a.5.5,0,0,1-.367-.129,1.256,1.256,0,0,1-.254-.484l-1.266-3.83a.059.059,0,0,0-.064-.056h-.032a.059.059,0,0,0-.064.056l-1.282,3.83a1.26,1.26,0,0,1-.254.484.5.5,0,0,1-.367.129h-.919a1.031,1.031,0,0,1-.238-.024.429.429,0,0,1-.181-.093.587.587,0,0,1-.141-.189,2,2,0,0,1-.117-.307l-1.484-4.846a.264.264,0,0,1-.012-.133c.008-.035.033-.052.077-.052Z" transform="translate(-437.829 -704.914)" fill="#fff"/>
        <path id="Path_19" data-name="Path 19" d="M544.849,704.914a.157.157,0,0,1,.177.177v5.29a.157.157,0,0,1-.177.177h-.871c-.124,0-.185-.059-.185-.177v-5.29c0-.118.061-.177.185-.177Z" transform="translate(-469.01 -704.914)" fill="#fff"/>
        <path id="Path_20" data-name="Path 20" d="M561.384,704.914q.186,0,.185.177v.79a.164.164,0,0,1-.185.185h-2.532v4.314a.157.157,0,0,1-.177.177H557.8a.157.157,0,0,1-.178-.177v-4.314h-2.532a.164.164,0,0,1-.185-.185v-.79q0-.177.185-.177Z" transform="translate(-477.03 -704.914)" fill="#fff"/>
        <path id="Path_21" data-name="Path 21" d="M586.586,704.914a.157.157,0,0,1,.177.177v2.1h3.774v-2.1a.157.157,0,0,1,.177-.177h.871q.185,0,.185.177v5.29q0,.177-.185.177h-.871a.157.157,0,0,1-.177-.177v-2.145h-3.774v2.145a.157.157,0,0,1-.177.177h-.871q-.185,0-.185-.177v-5.29q0-.177.185-.177Z" transform="translate(-499.144 -704.914)" fill="#fff"/>
        <path id="Path_22" data-name="Path 22" d="M620.386,704.914a4.046,4.046,0,0,1,1.044.117,1.627,1.627,0,0,1,.7.371,1.456,1.456,0,0,1,.391.657,3.449,3.449,0,0,1,.121.984v1.387a3.5,3.5,0,0,1-.121.988,1.455,1.455,0,0,1-.391.661,1.594,1.594,0,0,1-.7.367,4.174,4.174,0,0,1-1.044.113h-2.492a4.124,4.124,0,0,1-1.04-.113,1.591,1.591,0,0,1-.7-.367,1.48,1.48,0,0,1-.4-.661,3.4,3.4,0,0,1-.125-.988v-1.387a3.351,3.351,0,0,1,.125-.984,1.482,1.482,0,0,1,.4-.657,1.624,1.624,0,0,1,.7-.371,4,4,0,0,1,1.04-.117Zm-3.516,3.427a2.236,2.236,0,0,0,.053.528.72.72,0,0,0,.173.339.672.672,0,0,0,.327.177,2.135,2.135,0,0,0,.52.053h2.395a2.137,2.137,0,0,0,.52-.053.671.671,0,0,0,.326-.177.72.72,0,0,0,.173-.339,2.265,2.265,0,0,0,.053-.528v-1.209a2.27,2.27,0,0,0-.053-.528.723.723,0,0,0-.173-.339.674.674,0,0,0-.326-.177,2.166,2.166,0,0,0-.52-.053h-2.395a2.164,2.164,0,0,0-.52.053.675.675,0,0,0-.327.177.723.723,0,0,0-.173.339,2.241,2.241,0,0,0-.053.528Z" transform="translate(-520.88 -704.914)" fill="#fff"/>
        <path id="Path_23" data-name="Path 23" d="M649.5,704.914a.157.157,0,0,1,.177.177v3.217a2.315,2.315,0,0,0,.052.537.723.723,0,0,0,.174.338.672.672,0,0,0,.327.178,2.148,2.148,0,0,0,.52.052h2.234a2.147,2.147,0,0,0,.52-.052.671.671,0,0,0,.327-.178.692.692,0,0,0,.169-.338,2.488,2.488,0,0,0,.049-.537v-3.217a.157.157,0,0,1,.177-.177h.879a.157.157,0,0,1,.177.177v3.338a3.518,3.518,0,0,1-.121.988,1.455,1.455,0,0,1-.391.661,1.592,1.592,0,0,1-.7.367,4.176,4.176,0,0,1-1.044.113H650.7a4.126,4.126,0,0,1-1.04-.113,1.589,1.589,0,0,1-.7-.367,1.48,1.48,0,0,1-.4-.661,3.4,3.4,0,0,1-.125-.988v-3.338q0-.177.185-.177Z" transform="translate(-544.564 -704.914)" fill="#fff"/>
        <path id="Path_24" data-name="Path 24" d="M686.132,704.914c.123,0,.185.059.185.177v.79a.164.164,0,0,1-.185.185H683.6v4.314a.157.157,0,0,1-.177.177h-.879a.157.157,0,0,1-.177-.177v-4.314h-2.532a.164.164,0,0,1-.185-.185v-.79q0-.177.185-.177Z" transform="translate(-567.096 -704.914)" fill="#fff"/>
        <path id="Path_25" data-name="Path 25" d="M729.717,704.914a.157.157,0,0,1,.177.177v.79q0,.186-.177.185h-3.588a2.159,2.159,0,0,0-.52.053.673.673,0,0,0-.327.177.72.72,0,0,0-.173.335,2.229,2.229,0,0,0-.053.532v1.145a2.284,2.284,0,0,0,.053.537.72.72,0,0,0,.173.338.671.671,0,0,0,.327.178,2.148,2.148,0,0,0,.52.052h3.588a.157.157,0,0,1,.177.177v.79a.157.157,0,0,1-.177.177H726.08a4.123,4.123,0,0,1-1.04-.113,1.591,1.591,0,0,1-.7-.367,1.48,1.48,0,0,1-.4-.661,3.4,3.4,0,0,1-.125-.988v-1.387a3.351,3.351,0,0,1,.125-.984,1.482,1.482,0,0,1,.4-.657,1.624,1.624,0,0,1,.7-.371,4,4,0,0,1,1.04-.117Z" transform="translate(-598.988 -704.914)" fill="#fff"/>
        <path id="Path_26" data-name="Path 26" d="M757.345,704.914a4.047,4.047,0,0,1,1.044.117,1.626,1.626,0,0,1,.7.371,1.454,1.454,0,0,1,.391.657,3.45,3.45,0,0,1,.121.984v1.387a3.5,3.5,0,0,1-.121.988,1.452,1.452,0,0,1-.391.661,1.593,1.593,0,0,1-.7.367,4.175,4.175,0,0,1-1.044.113h-2.492a4.128,4.128,0,0,1-1.04-.113,1.59,1.59,0,0,1-.7-.367,1.484,1.484,0,0,1-.4-.661,3.4,3.4,0,0,1-.125-.988v-1.387a3.352,3.352,0,0,1,.125-.984,1.486,1.486,0,0,1,.4-.657,1.624,1.624,0,0,1,.7-.371,4,4,0,0,1,1.04-.117Zm-3.516,3.427a2.251,2.251,0,0,0,.052.528.723.723,0,0,0,.173.339.67.67,0,0,0,.327.177,2.131,2.131,0,0,0,.52.053H757.3a2.135,2.135,0,0,0,.52-.053.672.672,0,0,0,.327-.177.72.72,0,0,0,.173-.339,2.249,2.249,0,0,0,.053-.528v-1.209a2.254,2.254,0,0,0-.053-.528.722.722,0,0,0-.173-.339.675.675,0,0,0-.327-.177,2.164,2.164,0,0,0-.52-.053H754.9a2.16,2.16,0,0,0-.52.053.673.673,0,0,0-.327.177.726.726,0,0,0-.173.339,2.255,2.255,0,0,0-.052.528Z" transform="translate(-619.762 -704.914)" fill="#fff"/>
        <path id="Path_27" data-name="Path 27" d="M786.892,704.914a2.72,2.72,0,0,1,.323.016.646.646,0,0,1,.226.069.769.769,0,0,1,.185.145,2.629,2.629,0,0,1,.2.246l3,3.935a.111.111,0,0,0,.105.056H791c.043,0,.065-.027.065-.081v-4.209a.157.157,0,0,1,.177-.177h.847a.157.157,0,0,1,.177.177v4.629a.935.935,0,0,1-.177.665.758.758,0,0,1-.549.173h-.694a2.478,2.478,0,0,1-.31-.016.684.684,0,0,1-.222-.065.74.74,0,0,1-.19-.141,2.38,2.38,0,0,1-.214-.254l-3.008-3.935a.14.14,0,0,0-.105-.057h-.073c-.043,0-.065.027-.065.081v4.209a.157.157,0,0,1-.177.177h-.847q-.185,0-.185-.177v-4.629a.935.935,0,0,1,.177-.665.758.758,0,0,1,.548-.173Z" transform="translate(-643.487 -704.914)" fill="#fff"/>
        <path id="Path_28" data-name="Path 28" d="M819.319,704.914a2.721,2.721,0,0,1,.323.016.646.646,0,0,1,.226.069.768.768,0,0,1,.185.145,2.63,2.63,0,0,1,.2.246l3,3.935a.111.111,0,0,0,.105.056h.073c.043,0,.065-.027.065-.081v-4.209a.157.157,0,0,1,.177-.177h.847a.157.157,0,0,1,.177.177v4.629a.937.937,0,0,1-.177.665.758.758,0,0,1-.549.173h-.694a2.479,2.479,0,0,1-.31-.016.684.684,0,0,1-.222-.065.734.734,0,0,1-.19-.141,2.387,2.387,0,0,1-.214-.254l-3.008-3.935a.139.139,0,0,0-.1-.057h-.073c-.043,0-.065.027-.065.081v4.209a.157.157,0,0,1-.177.177h-.847q-.185,0-.185-.177v-4.629a.935.935,0,0,1,.177-.665.759.759,0,0,1,.548-.173Z" transform="translate(-666.899 -704.914)" fill="#fff"/>
        <path id="Path_29" data-name="Path 29" d="M855.884,704.914q.186,0,.186.177v.766q0,.177-.186.177H852.36a2.164,2.164,0,0,0-.52.053.7.7,0,0,0-.331.177.68.68,0,0,0-.173.339,2.439,2.439,0,0,0-.048.528v.081h4.556a.157.157,0,0,1,.177.177v.637a.157.157,0,0,1-.177.178h-4.556v.137a2.433,2.433,0,0,0,.048.528.677.677,0,0,0,.173.339.7.7,0,0,0,.331.177,2.135,2.135,0,0,0,.52.053h3.524q.186,0,.186.177v.766q0,.177-.186.177h-3.548a4.123,4.123,0,0,1-1.04-.113,1.591,1.591,0,0,1-.7-.367,1.485,1.485,0,0,1-.4-.661,3.4,3.4,0,0,1-.125-.988v-1.387a3.353,3.353,0,0,1,.125-.984,1.487,1.487,0,0,1,.4-.657,1.624,1.624,0,0,1,.7-.371,4,4,0,0,1,1.04-.117Z" transform="translate(-690.143 -704.914)" fill="#fff"/>
        <path id="Path_30" data-name="Path 30" d="M884.688,704.914a.157.157,0,0,1,.177.177v.79c0,.124-.059.185-.177.185H881.1a2.16,2.16,0,0,0-.52.053.673.673,0,0,0-.327.177.721.721,0,0,0-.173.335,2.229,2.229,0,0,0-.052.532v1.145a2.284,2.284,0,0,0,.052.537.721.721,0,0,0,.173.338.671.671,0,0,0,.327.178,2.15,2.15,0,0,0,.52.052h3.588a.157.157,0,0,1,.177.177v.79a.157.157,0,0,1-.177.177h-3.637a4.123,4.123,0,0,1-1.04-.113,1.591,1.591,0,0,1-.7-.367,1.48,1.48,0,0,1-.4-.661,3.4,3.4,0,0,1-.125-.988v-1.387a3.353,3.353,0,0,1,.125-.984,1.482,1.482,0,0,1,.4-.657,1.624,1.624,0,0,1,.7-.371,4,4,0,0,1,1.04-.117Z" transform="translate(-710.875 -704.914)" fill="#fff"/>
        <path id="Path_31" data-name="Path 31" d="M913.034,704.914q.186,0,.186.177v.79a.164.164,0,0,1-.186.185H910.5v4.314a.157.157,0,0,1-.177.177h-.879a.157.157,0,0,1-.177-.177v-4.314h-2.532a.164.164,0,0,1-.185-.185v-.79q0-.177.185-.177Z" transform="translate(-730.915 -704.914)" fill="#fff"/>
        <path id="Path_32" data-name="Path 32" d="M938.235,704.914a.157.157,0,0,1,.177.177v5.29a.157.157,0,0,1-.177.177h-.871c-.124,0-.185-.059-.185-.177v-5.29c0-.118.061-.177.185-.177Z" transform="translate(-753.028 -704.914)" fill="#fff"/>
        <path id="Path_33" data-name="Path 33" d="M950.969,704.914a2.723,2.723,0,0,1,.323.016.646.646,0,0,1,.226.069.761.761,0,0,1,.185.145,2.592,2.592,0,0,1,.2.246l3,3.935a.111.111,0,0,0,.105.056h.072c.043,0,.065-.027.065-.081v-4.209a.157.157,0,0,1,.177-.177h.847a.157.157,0,0,1,.177.177v4.629a.935.935,0,0,1-.177.665.757.757,0,0,1-.548.173h-.694a2.474,2.474,0,0,1-.31-.016.685.685,0,0,1-.222-.065.744.744,0,0,1-.19-.141,2.446,2.446,0,0,1-.214-.254l-3.008-3.935a.139.139,0,0,0-.1-.057h-.073c-.043,0-.064.027-.064.081v4.209a.157.157,0,0,1-.177.177h-.847q-.185,0-.185-.177v-4.629a.935.935,0,0,1,.178-.665.758.758,0,0,1,.548-.173Z" transform="translate(-761.948 -704.914)" fill="#fff"/>
        <path id="Path_34" data-name="Path 34" d="M988.075,704.914a.157.157,0,0,1,.177.177v.79q0,.186-.177.185h-4.04a2.159,2.159,0,0,0-.52.053.673.673,0,0,0-.327.177.719.719,0,0,0-.173.335,2.225,2.225,0,0,0-.053.532v1.161a2.276,2.276,0,0,0,.053.536.721.721,0,0,0,.173.339.673.673,0,0,0,.327.177,2.151,2.151,0,0,0,.52.052H986.7a.39.39,0,0,0,.306-.109.58.58,0,0,0,.1-.383v-.653c0-.07-.032-.1-.1-.1H984.64c-.119,0-.177-.062-.177-.186v-.6c0-.123.059-.185.177-.185H988a.214.214,0,0,1,.242.242v1.879a1.4,1.4,0,0,1-.258.956.964.964,0,0,1-.742.278h-3.258a4.124,4.124,0,0,1-1.04-.113,1.591,1.591,0,0,1-.7-.367,1.48,1.48,0,0,1-.4-.661,3.4,3.4,0,0,1-.125-.988v-1.387a3.351,3.351,0,0,1,.125-.984,1.482,1.482,0,0,1,.4-.657,1.624,1.624,0,0,1,.7-.371,4,4,0,0,1,1.04-.117Z" transform="translate(-785.193 -704.914)" fill="#fff"/>
      </g>
    </g>
  </g>
</svg>
