<?xml version="1.0" encoding="utf-8"?>
<!-- Svg Vector Icons : http://www.onlinewebfonts.com/icon -->
<!DOCTYPE svg PUBLIC "-//W3C//DTD SVG 1.1//EN" "http://www.w3.org/Graphics/SVG/1.1/DTD/svg11.dtd">
<svg version="1.1" xmlns="http://www.w3.org/2000/svg" xmlns:xlink="http://www.w3.org/1999/xlink" x="0px" y="0px" viewBox="0 0 1000 1000" enable-background="new 0 0 1000 1000" xml:space="preserve">
<metadata> Svg Vector Icons : http://www.onlinewebfonts.com/icon </metadata>
<g><path d="M990,251.9c0-37.2-30.1-67.3-67.3-67.3s-67.3,30.1-67.3,67.3c0,25.5,14.3,47.4,35.2,58.8c-2.3,16.8-35.4,224.7-244.1,163.7c-76.2-22.3-99.4-116.3-106.5-175.3c36.4-14.5,62.2-49.9,62.2-91.4c0-54.5-44.2-98.6-98.6-98.6c-54.5,0-98.6,44.1-98.6,98.6c0,40.2,24.2,74.7,58.7,90c-8.4,66.2-38.1,178.9-144.1,185.6c-182,11.4-205.9-161.1-207.4-174c19.4-11.8,32.5-33,32.5-57.4c0-37.2-30.1-67.3-67.3-67.3c-37.2,0-67.3,30.1-67.3,67.3c0,30.2,20.1,55.5,47.5,64L149,673.5l49.8,188.4c0,0,157.1,28.9,309.1,29c151.8,0.1,298.4-28.5,298.4-28.5l51.8-192.6l95.1-357.7l-0.7,0C974.6,301,990,278.4,990,251.9z M77.3,279.9c-15.4,0-27.9-12.5-27.9-27.9c0-15.4,12.5-27.9,27.9-27.9c15.4,0,27.9,12.5,27.9,27.9C105.3,267.4,92.7,279.9,77.3,279.9z M447.8,207.7c0-30.8,25-55.8,55.8-55.8c30.8,0,55.8,25,55.8,55.8s-25,55.8-55.8,55.8C472.7,263.5,447.8,238.5,447.8,207.7z M818.9,686.4L773.1,832c0,0-129.7,23.1-263.9,23c-134.3-0.1-273.3-23.4-273.3-23.4l-44-142.2l-62.5-253.6l13.9,18.1c0,0,32.2,71.8,199.4,62.3c133.2-7.6,159.8-168.3,160-168.3l2.4-0.1c0,0,26.7,134.6,126.6,161.3c192.3,51.3,239.5-52.7,239.5-52.7l11.9-19.1L818.9,686.4z M922.7,279.9c-15.4,0-27.9-12.5-27.9-28s12.5-27.9,27.9-27.9c15.4,0,28,12.5,28,27.9C950.6,267.4,938.1,279.9,922.7,279.9z"/><path d="M166.2,678.7h680.4v38.5H166.2V678.7z"/><path d="M510.9,608.2l58.7,79.8l-58.7,79.8l-58.7-79.8L510.9,608.2z"/></g>
</svg>